<svg xmlns="http://www.w3.org/2000/svg" version="1.1" xmlns:xlink="http://www.w3.org/1999/xlink" xmlns:svgjs="http://svgjs.dev/svgjs" width="1500" height="1500" viewBox="0 0 1500 1500"><g transform="matrix(1,0,0,1,-0.3236151603499593,-0.3236151603499593)"><svg viewBox="0 0 343 343" data-background-color="#af6834" preserveAspectRatio="xMidYMid meet" height="1500" width="1500" xmlns="http://www.w3.org/2000/svg" xmlns:xlink="http://www.w3.org/1999/xlink"><g id="tight-bounds" transform="matrix(1,0,0,1,0.07400000000001228,0.07400000000001228)"><svg viewBox="0 0 342.8515585177538 342.8515585177538" height="342.8515585177538" width="342.8515585177538"><g><svg></svg></g><g><svg viewBox="0 0 342.8515585177538 342.8515585177538" height="342.8515585177538" width="342.8515585177538"><g><path d="M0 171.426c0-94.676 76.75-171.426 171.426-171.426 94.676 0 171.426 76.75 171.426 171.426 0 94.676-76.75 171.426-171.426 171.426-94.676 0-171.426-76.75-171.426-171.426zM171.426 337.277c91.597 0 165.851-74.254 165.851-165.851 0-91.597-74.254-165.851-165.851-165.852-91.597 0-165.851 74.254-165.852 165.852 0 91.597 74.254 165.851 165.852 165.851z" data-fill-palette-color="tertiary" fill="#211f1f" stroke="transparent"></path><ellipse rx="164.56874808852183" ry="164.56874808852183" cx="171.4257792588769" cy="171.4257792588769" fill="#211f1f" stroke="transparent" stroke-width="0" fill-opacity="1" data-fill-palette-color="tertiary"></ellipse></g><g transform="matrix(1,0,0,1,64.84655864529836,90.50896459844122)"><svg viewBox="0 0 213.15844122715708 161.83362932087135" height="161.83362932087135" width="213.15844122715708"><g><svg viewBox="0 0 213.15844122715708 161.83362932087135" height="161.83362932087135" width="213.15844122715708"><g><svg viewBox="0 0 213.15844122715714 161.83362932087138" height="161.83362932087135" width="213.15844122715708"><g transform="matrix(1,0,0,1,0,100.01967536351057)"><svg viewBox="0 0 213.15844122715714 61.813953957360816" height="61.813953957360816" width="213.15844122715714"><g id="textblocktransform"><svg viewBox="0 0 213.15844122715714 61.813953957360816" height="61.813953957360816" width="213.15844122715714" id="textblock"><g><svg viewBox="0 0 213.15844122715714 61.813953957360816" height="61.813953957360816" width="213.15844122715714"><g transform="matrix(1,0,0,1,0,0)"><svg width="213.15844122715714" viewBox="2.4399999999999995 -29.79 104.39 30.28" height="61.813953957360816" data-palette-color="#af6834"><path d="M26.76-2.25L26.76-2.25Q26.76-0.2 27.34 0.1L27.34 0.1Q27.69 0.24 28.27 0.24L28.27 0.24 28.27-8.98 27.1-8.98Q24.61-0.93 17.14-0.88L17.14-0.88Q10.79-0.88 8.5-7.28L8.5-7.28Q7.37-10.4 7.37-14.65L7.37-14.65Q7.37-23.78 12.4-27.05L12.4-27.05Q14.6-28.42 17.29-28.42L17.29-28.42Q23.39-28.42 26.12-22.66L26.12-22.66Q26.61-21.63 26.95-20.56L26.95-20.56 28.13-20.56 27.98-29.54Q26.9-29.54 26.66-28.86L26.66-28.86Q26.51-28.27 26.51-26.95L26.51-26.95Q25.1-28.37 21.68-29.25L21.68-29.25Q19.43-29.79 17.09-29.79L17.09-29.79Q9.38-29.79 5.27-24.07L5.27-24.07Q2.44-20.02 2.44-14.75L2.44-14.75Q2.44-8.35 6.4-4L6.4-4Q10.6 0.49 17.33 0.49L17.33 0.49Q22.27 0.44 26.76-2.25ZM32.42 0L44.38 0Q44.38-1.07 43.6-1.22L43.6-1.22Q43.36-1.27 43.11-1.27L43.11-1.27 40.52-1.27 40.52-28.03 44.38-28.03 44.38-29.3 32.42-29.3 32.42-28.03 36.33-28.03 36.33-1.27 32.42-1.27 32.42 0ZM71.04-22.66L71.04-22.66Q71.04-26.37 67.52-28.17L67.52-28.17Q65.23-29.3 62.01-29.3L62.01-29.3 48.29-29.3 48.29-28.03 52.19-28.03 52.19-1.27 48.29-1.27 48.29 0 62.15 0Q68.45 0 71.38-4L71.38-4Q72.9-6.1 72.9-8.59L72.9-8.59Q72.9-12.5 69.43-14.65L69.43-14.65Q67.82-15.58 65.72-15.97L65.72-15.97Q69.23-17.29 70.55-20.41L70.55-20.41Q71.04-21.58 71.04-22.66ZM56.39-28.03L60.83-28.03Q65.86-28.03 66.55-23.58L66.55-23.58Q66.65-22.95 66.65-22.27L66.65-22.27Q66.65-19.09 64.16-17.48L64.16-17.48Q62.69-16.55 60.74-16.55L60.74-16.55 56.39-16.55 56.39-28.03ZM56.39-15.23L61.66-15.23Q66.11-15.23 67.62-11.47L67.62-11.47Q68.21-10.11 68.21-8.5L68.21-8.5Q68.21-4.74 65.77-2.64L65.77-2.64Q64.16-1.27 61.91-1.27L61.91-1.27 56.39-1.27 56.39-15.23ZM92.42-29.79L92.42-29.79Q86.56-29.79 82.37-25.93L82.37-25.93Q77.78-21.68 77.78-14.84L77.78-14.84Q77.78-6.93 83.2-2.64L83.2-2.64Q87.15 0.49 92.28 0.49L92.28 0.49Q98.04 0.49 102.19-3.42L102.19-3.42Q106.83-7.76 106.83-14.65L106.83-14.65Q106.83-22.71 101.21-26.9L101.21-26.9Q97.4-29.79 92.42-29.79ZM92.42-0.88L92.42-0.88Q85.34-0.88 83.34-8.45L83.34-8.45Q82.66-11.13 82.66-14.65L82.66-14.65Q82.66-26.27 89.69-28.13L89.69-28.13Q90.91-28.42 92.28-28.42L92.28-28.42Q101.9-28.32 101.95-14.84L101.95-14.84Q101.95-4.2 96.04-1.61L96.04-1.61Q94.38-0.88 92.42-0.88Z" opacity="1" transform="matrix(1,0,0,1,0,0)" fill="#af6834" class="wordmark-text-0" data-fill-palette-color="quaternary" id="text-0"></path></svg></g></svg></g></svg></g></svg></g><g transform="matrix(1,0,0,1,68.13712264749587,0)"><svg viewBox="0 0 76.8841959321654 85.42688436907267" height="85.42688436907267" width="76.8841959321654"><g><svg xmlns="http://www.w3.org/2000/svg" viewBox="12 8 72 80" x="0" y="0" height="85.42688436907267" width="76.8841959321654" class="icon-icon-0" data-fill-palette-color="quaternary" id="icon-0"><g fill="#af6834" data-fill-palette-color="quaternary"><path d="M82 8H18A6.007 6.007 0 0 0 12 14V82A6.007 6.007 0 0 0 18 88H82A2 2 0 0 0 84 86V10A2 2 0 0 0 82 8M16 82V14A2.003 2.003 0 0 1 18 12H20V84H18A2.003 2.003 0 0 1 16 82M80 84H24V12H80Z" fill="#af6834" data-fill-palette-color="quaternary"></path><path d="M60 47.798V70A2 2 0 0 0 64 70V47.798A10.015 10.015 0 0 0 72 38V28A2 2 0 0 0 68 28V38A5.99 5.99 0 0 1 64 43.632V28A2 2 0 0 0 60 28V43.632A5.99 5.99 0 0 1 56 38V28A2 2 0 0 0 52 28V38A10.015 10.015 0 0 0 60 47.798" fill="#af6834" data-fill-palette-color="quaternary"></path><path d="M38 47.704V70A2 2 0 0 0 42 70V47.704C45.086 46.881 48 44.066 48 38 48 32.277 45.152 24 40 24S32 32.277 32 38C32 44.066 34.914 46.881 38 47.704M40 28C41.352 28 44 32.527 44 38 44 40.24 43.48 44 40 44S36 40.24 36 38C36 32.527 38.648 28 40 28" fill="#af6834" data-fill-palette-color="quaternary"></path></g></svg></g></svg></g><g></g></svg></g></svg></g></svg></g></svg></g><defs></defs></svg><rect width="342.8515585177538" height="342.8515585177538" fill="none" stroke="none" visibility="hidden"></rect></g></svg></g></svg>